<?xml version="1.0" encoding="UTF-8"?>
<svg width="638px" height="190px" viewBox="0 0 638 190" version="1.1" xmlns="http://www.w3.org/2000/svg" xmlns:xlink="http://www.w3.org/1999/xlink">
    <!-- Generator: Sketch 51.2 (57519) - http://www.bohemiancoding.com/sketch -->
    <title>Logo</title>
    <desc>Created with Sketch.</desc>
    <defs></defs>
    <g id="Logo" stroke="none" stroke-width="1" fill="none" fill-rule="evenodd">
        <text id="Imannotate" font-family="TheodonisVilla-Regular, Theodonis Villa" font-size="120" font-weight="normal" fill="#3B80FF">
            <tspan x="38.4" y="133">Imannotate</tspan>
        </text>
        <g id="Group" transform="translate(15.000000, 12.000000)" fill-rule="nonzero" stroke="#1BBA96" stroke-width="9">
            <path d="M145,120.042072 L145,30.0080809 C140.79507,29.8036427 137.404325,28.4777774 134.827766,26.030485 C132.251207,23.5831927 130.463503,19.9063643 129.464655,15 L30.2242685,15 C29.5287804,19.7893905 27.9184493,23.4662189 25.393275,26.030485 C22.8681007,28.5947512 19.4036757,29.9206165 15,30.0080809 L15,129.65688 C19.365593,130.14891 22.830018,131.644151 25.393275,134.142603 C27.956532,136.641056 29.5668631,140.260188 30.2242685,145 L119.20952,145" id="Square"></path>
            <circle id="Oval-up-left" cx="15" cy="15" r="15"></circle>
            <circle id="Oval-bottom-left" cx="15" cy="145" r="15"></circle>
            <circle id="Oval-up-right" cx="145" cy="15" r="15"></circle>
            <g id="+-sign" transform="translate(125.000000, 125.000000)">
                <path d="M0,20 L40,20" id="Path-3"></path>
                <path d="M0,20 L40,20" id="Path-3-Copy" transform="translate(20.000000, 20.000000) rotate(90.000000) translate(-20.000000, -20.000000) "></path>
            </g>
        </g>
    </g>
</svg>