<?xml version="1.0" encoding="UTF-8"?>
<svg width="638px" height="190px" viewBox="0 0 638 190" version="1.1" xmlns="http://www.w3.org/2000/svg" xmlns:xlink="http://www.w3.org/1999/xlink">
    <!-- Generator: Sketch 51.2 (57519) - http://www.bohemiancoding.com/sketch -->
    <title>Logo</title>
    <desc>Created with Sketch.</desc>
    <defs></defs>
    <g id="Logo" stroke="none" stroke-width="1" fill="none" fill-rule="evenodd">
        <g transform="translate(15.000000, 12.000000)">
            <path d="M37.2,30.88 C38.400006,30.479998 39.399996,30.28 40.2,30.28 C41.6400072,30.28 43.2399912,30.879994 45,32.08 C47.800014,34.0000096 49.7199948,38.4399652 50.76,45.4 C51.8000052,52.3600348 52.32,63.9999184 52.32,80.32 L52.32,104.08 L50.28,107.68 C47.479986,112.240023 44.3200176,114.52 40.8,114.52 C36.399978,114.52 33.000012,111.840027 30.6,106.48 C28.2799884,101.199974 27.12,91.5200704 27.12,77.44 C27.12,65.43994 28.0399908,54.1600528 29.88,43.6 C30.6000036,39.6799804 31.5199944,36.7400098 32.64,34.78 C33.7600056,32.8199902 35.2799904,31.5200032 37.2,30.88 Z" id="Path" fill="#3B80FF"></path>
            <path d="M93.72,51.4 C94.920006,50.6799964 96.319992,50.32 97.92,50.32 C99.7600092,50.32 101.239994,50.7599956 102.36,51.64 C104.680012,53.5600096 106.199996,57.2799724 106.92,62.8 C107.400002,65.8400152 107.759999,67.3999996 108,67.48 C108.480002,67.8000016 109.159996,67.2400072 110.04,65.8 C111.000005,64.199992 112.719988,62.1200128 115.2,59.56 C117.680012,56.9999872 119.799991,55.0800064 121.56,53.8 C123.48001,52.3599928 125.359991,51.64 127.2,51.64 C128.720008,51.64 130.119994,52.039996 131.4,52.84 C134.600016,54.7600096 136.2,58.3999732 136.2,63.76 C136.2,68.160022 135.16001,75.759946 133.08,86.56 C130.519987,99.4400644 129.24,106.91999 129.24,109 C129.24,110.120006 129.519997,110.68 130.08,110.68 C130.800004,110.68 132.999982,108.120026 136.68,103 C141.720025,96.0399652 145.099991,91.5800098 146.82,89.62 C148.540009,87.6599902 149.919995,86.68 150.96,86.68 L151.32,86.68 C153.40001,86.9200012 154.44,87.7999924 154.44,89.32 C154.44,90.120004 154.200002,90.919996 153.72,91.72 C149.71998,99.4000384 145.68002,105.979973 141.6,111.46 C137.51998,116.940027 134.040014,120.439992 131.16,121.96 C129.719993,122.680004 128.240008,123.04 126.72,123.04 C122.879981,123.04 119.96001,121.160019 117.96,117.4 C116.519993,114.599986 115.8,110.120031 115.8,103.96 C115.8,95.4799576 117.119987,85.640056 119.76,74.44 C120.480004,71.1599836 120.84,69.120004 120.84,68.32 L120.72,67.96 L120.6,67.96 C120.039997,67.96 118.820009,69.259987 116.94,71.86 C115.059991,74.460013 113.320008,77.2799848 111.72,80.32 C109.63999,84.2400196 108.140005,87.7599844 107.22,90.88 C106.299995,94.0000156 105.480004,98.2399732 104.76,103.6 C104.119997,108.560025 103.380004,112.139989 102.54,114.34 C101.699996,116.540011 100.600007,117.799998 99.24,118.12 C98.439996,118.280001 97.8000024,118.36 97.32,118.36 C95.0799888,118.36 93.360006,117.520008 92.16,115.84 C90.6399924,113.279987 89.88,107.600044 89.88,98.8 C89.88,95.5199836 89.9999988,91.8400204 90.24,87.76 C90.640002,80.7999652 90.84,76.0800124 90.84,73.6 L90.84,72.76 C90.84,72.5999992 90.7600008,72.52 90.6,72.52 C89.6399952,72.52 86.9200224,77.8399468 82.44,88.48 C77.9599776,99.1200532 75.2400048,106.839976 74.28,111.64 C73.479996,115.64002 72.3600072,118.199994 70.92,119.32 C69.8799948,120.120004 68.7200064,120.52 67.44,120.52 C65.5999908,120.52 63.9200076,119.760008 62.4,118.24 C60.7199916,116.479991 59.1600072,110.300053 57.72,99.7 C56.2799928,89.099947 55.56,79.400044 55.56,70.6 C55.56,63.799966 56.0399952,59.7200068 57,58.36 C58.4400072,56.0399884 60.359988,54.88 62.76,54.88 C64.6800096,54.88 66.239994,55.7599912 67.44,57.52 C69.040008,59.920012 70.439994,66.4799464 71.64,77.2 C72.2000028,82.7200276 72.679998,85.679998 73.08,86.08 L73.2,86.08 C73.7600028,86.08 74.5199952,84.9200116 75.48,82.6 C78.0400128,76.4399692 81.3399798,69.9400342 85.38,63.1 C89.4200202,56.2599658 92.1999924,52.3600048 93.72,51.4 Z" id="Path" fill="#3B80FF"></path>
            <path d="M250.44,52.24 C253.000013,50.4799912 255.039992,49.6 256.56,49.6 C259.200013,49.6 261.619989,50.6399896 263.82,52.72 C266.020011,54.8000104 267.519996,57.5199832 268.32,60.88 C268.960003,63.4400128 269.28,68.0799664 269.28,74.8 C269.28,82.5600388 268.840004,91.039954 267.96,100.24 C267.319997,106.640032 267,110.999988 267,113.32 C267,116.440016 267.439996,118 268.32,118 C268.960003,118 270.219991,117.100009 272.1,115.3 C273.980009,113.499991 275.839991,111.400012 277.68,109 C285.440039,98.99995 290.479988,93.2400076 292.8,91.72 C293.520004,91.2399976 294.199997,91 294.84,91 C295.640004,91 296.319997,91.3599964 296.88,92.08 C297.440003,92.8000036 297.72,93.6799948 297.72,94.72 C297.72,96.320008 297.080006,97.7999932 295.8,99.16 C292.679984,103.000019 289.960012,106.439985 287.64,109.48 C282.599975,116.360034 278.920012,120.919989 276.6,123.16 C274.279988,125.400011 271.760014,126.919996 269.04,127.72 C267.919994,127.960001 266.920004,128.08 266.04,128.08 C261.239976,128.08 257.240016,125.140029 254.04,119.26 C250.839984,113.379971 249.24,105.880046 249.24,96.76 C249.24,92.8399804 249.799994,86.8000408 250.92,78.64 C251.960005,71.039962 252.48,66.8000044 252.48,65.92 C252.48,65.4399976 252.360001,65.2 252.12,65.2 C251.479997,65.2 250.220009,66.5399866 248.34,69.22 C246.459991,71.9000134 244.640009,75.039982 242.88,78.64 C239.119981,86.3200384 236.480008,94.7999536 234.96,104.08 C234.079996,109.600028 233.000006,113.439989 231.72,115.6 C230.439994,117.760011 228.560012,118.84 226.08,118.84 C223.599988,118.84 221.700007,117.82001 220.38,115.78 C219.059993,113.73999 218.000004,110.120026 217.2,104.92 C217.2,104.519998 217.120001,104.32 216.96,104.32 C216.559998,104.32 215.720006,105.479988 214.44,107.8 C210.759982,114.120032 206.96002,117.28 203.04,117.28 C196.799969,117.28 192.320014,113.28004 189.6,105.28 L188.16,101.2 L185.64,105.64 C183.239988,110.120022 179.860022,113.799986 175.5,116.68 C171.139978,119.560014 166.96002,121 162.96,121 C161.519993,121 160.280005,120.840002 159.24,120.52 C157.15999,119.879997 155.220009,118.58001 153.42,116.62 C151.619991,114.65999 150.360004,112.520012 149.64,110.2 C148.919996,107.719988 148.56,104.720018 148.56,101.2 C148.56,90.7199476 150.959976,80.880046 155.76,71.68 C159.200017,65.0399668 163.159978,59.9600176 167.64,56.44 C172.120022,52.9199824 176.799976,51.16 181.68,51.16 C184.960016,51.16 188.199984,51.9999916 191.4,53.68 C194.600016,55.3600084 197.079991,57.5199868 198.84,60.16 C200.600009,62.7200128 201.759997,65.599984 202.32,68.8 C202.880003,72.000016 203.16,77.2799632 203.16,84.64 C203.16,98.3200684 203.959992,105.16 205.56,105.16 L205.68,105.16 C207.440009,104.519997 210.199981,99.4400476 213.96,89.92 C217.720019,80.3999524 220.239994,72.1200352 221.52,65.08 C222.400004,60.1199752 223.259996,56.7200092 224.1,54.88 C224.940004,53.0399908 226.039993,51.920002 227.4,51.52 C228.280004,51.2799988 229.039997,51.16 229.68,51.16 C233.360018,51.16 235.679995,54.6799648 236.64,61.72 C237.120002,65.6400196 237.439999,67.6 237.6,67.6 C237.760001,67.6 239.279986,65.5200208 242.16,61.36 C244.880014,57.2799796 247.639986,54.24001 250.44,52.24 Z M190.56,66.04 C190.399999,65.639998 188.960014,65.44 186.24,65.44 C184.399991,65.44 183.120004,65.6199982 182.4,65.98 C181.679996,66.3400018 180.600007,67.2399928 179.16,68.68 C176.199985,71.8000156 172.820019,78.3199504 169.02,88.24 C165.219981,98.1600496 163.32,105.479976 163.32,110.2 C163.32,111.160005 163.439999,111.779999 163.68,112.06 C163.920001,112.340001 164.439996,112.48 165.24,112.48 C171.720032,112.48 178.359966,104.120084 185.16,87.4 C186.440006,84.2799844 187.679994,80.4800224 188.88,76 C190.080006,71.5199776 190.68,68.480008 190.68,66.88 C190.68,66.3999976 190.64,66.1200004 190.56,66.04 Z" id="Combined-Shape" fill="#3B80FF"></path>
            <path d="M326.16,53.08 C327.680008,52.1999956 329.359991,51.76 331.2,51.76 C335.760023,51.76 339.07999,54.5199724 341.16,60.04 C342.120005,62.440012 342.6,67.9599568 342.6,76.6 C342.6,85.2400432 342.120005,92.7999676 341.16,99.28 C340.279996,105.440031 339.84,108.879996 339.84,109.6 C339.84,110.320004 340.039998,110.68 340.44,110.68 C341.480005,110.68 345.399966,106.480042 352.2,98.08 C354.28001,95.5199872 355.739996,93.8600038 356.58,93.1 C357.420004,92.3399962 358.319995,91.96 359.28,91.96 C360.400006,91.96 361.299997,92.2799968 361.98,92.92 C362.660003,93.5600032 363,94.3599952 363,95.32 C363,95.6400016 362.840002,96.2799952 362.52,97.24 C361.559995,98.9200084 359.360017,102.159976 355.92,106.96 C350.399972,114.560038 346.240014,119.739986 343.44,122.5 C340.639986,125.260014 338.040012,126.64 335.64,126.64 C334.919996,126.64 334.360002,126.6 333.96,126.52 C332.279992,126.199998 330.500009,125.240008 328.62,123.64 C326.739991,122.039992 325.240006,120.20001 324.12,118.12 C322.759993,115.559987 322.08,111.160031 322.08,104.92 C322.08,96.2799568 323.279988,84.96007 325.68,70.96 L326.04,68.32 L323.88,70.24 C320.199982,73.6800172 315.880025,80.4799492 310.92,90.64 C308.439988,95.7600256 306.820004,99.4599886 306.06,101.74 C305.299996,104.020011 304.92,106.439987 304.92,109 C304.92,114.600028 303.92001,118.559988 301.92,120.88 C301.039996,121.840005 299.840008,122.32 298.32,122.32 C296.23999,122.32 294.480007,121.600007 293.04,120.16 C288.239976,115.119975 285.84,102.360102 285.84,81.88 C285.84,72.9199552 286.159997,66.6600178 286.8,63.1 C287.440003,59.5399822 288.79999,56.7200104 290.88,54.64 C292.320007,53.1999928 293.519995,52.48 294.48,52.48 C295.360004,52.48 296.479993,53.1599932 297.84,54.52 C299.360008,56.0400076 300.419997,57.999988 301.02,60.4 C301.620003,62.800012 302.199997,67.2799672 302.76,73.84 C303.320003,81.2800372 303.799998,85 304.2,85 C304.600002,85 305.399994,83.800012 306.6,81.4 C308.280008,77.4799804 310.639985,72.9000262 313.68,67.66 C316.720015,62.4199738 318.919993,59.0800072 320.28,57.64 C322.120009,55.63999 324.07999,54.1200052 326.16,53.08 Z" id="Path" fill="#3B80FF"></path>
            <path d="M373.44,51.4 C375.760012,50.5199956 378.039989,50.08 380.28,50.08 C383.240015,50.08 387.119976,51.1999888 391.92,53.44 C395.84002,55.2800092 398.659991,56.9799922 400.38,58.54 C402.100009,60.1000078 403.679993,62.4399844 405.12,65.56 C406.000004,67.56001 406.679998,68.6399992 407.16,68.8 C407.320001,68.8800004 407.519999,68.92 407.76,68.92 C408.560004,68.92 411.839971,67.6000132 417.6,64.96 C421.52002,63.1199908 424.239992,62.2 425.76,62.2 C427.200007,62.2 427.92,63.2399896 427.92,65.32 C427.92,66.2800048 427.580003,67.0399972 426.9,67.6 C426.219997,68.1600028 424.360015,69.1999924 421.32,70.72 C417.31998,72.72001 414.000013,74.1599956 411.36,75.04 L408,76 L408,81.88 C407.92,86.9200252 406.760011,91.9999744 404.52,97.12 C402.279989,102.240026 399.20002,106.79998 395.28,110.8 C390.719977,115.360023 385.280032,117.839998 378.96,118.24 C378.399997,118.32 377.640005,118.36 376.68,118.36 C370.999972,118.36 365.920022,115.880025 361.44,110.92 C354.639966,103.719964 351.24,94.8400528 351.24,84.28 C351.24,78.9999736 352.23999,74.2000216 354.24,69.88 C358.640022,60.5199532 365.039958,54.3600148 373.44,51.4 Z M377.88,76.12 C375.87999,74.2799908 374.680002,73.36 374.28,73.36 C372.919993,73.36 372.040002,76.9999636 371.64,84.28 L371.64,86.56 C371.64,92.8800316 372.959987,98.0799796 375.6,102.16 C377.360009,104.880014 379.479988,106.24 381.96,106.24 C383.96001,106.24 386.359986,105.320009 389.16,103.48 C391.800013,101.719991 394.319988,98.540023 396.72,93.94 C399.120012,89.339977 400.399999,85.240018 400.56,81.64 L400.68,78.52 L390.84,78.76 L381,78.88 L377.88,76.12 Z M396.12,67.24 C395.319996,65.9599936 394.580003,65.2000012 393.9,64.96 C393.219997,64.7199988 391.680012,64.5200008 389.28,64.36 L387.48,64.36 C383.079978,64.36 380.88,65.2399912 380.88,67 C380.88,68.4400072 382.019989,69.6799948 384.3,70.72 C386.580011,71.7600052 389.159986,72.28 392.04,72.28 C392.600003,72.28 393.519994,72.2000008 394.8,72.04 C396.80001,71.7199984 397.8,71.2000036 397.8,70.48 C397.8,69.9199972 397.240006,68.840008 396.12,67.24 Z" id="Combined-Shape" fill="#3B80FF"></path>
            <path d="M431.04,26.44 C431.920004,25.639996 432.919994,25.24 434.04,25.24 C436.200011,25.24 437.959993,26.7199852 439.32,29.68 C440.040004,31.4400088 440.4,35.5599676 440.4,42.04 C440.4,42.7600036 440.38,44.1399898 440.34,46.18 C440.3,48.2200102 440.28,49.8799936 440.28,51.16 L439.92,69.88 L444.96,70.12 C449.680024,70.3600012 452.04,71.3999908 452.04,73.24 C452.04,74.5200064 451.560005,75.4399972 450.6,76 C449.639995,76.5600028 447.880013,77.039998 445.32,77.44 C441.719982,77.9200024 439.760002,78.3999976 439.44,78.88 C439.119998,79.280002 438.96,81.879976 438.96,86.68 C438.96,99.0000616 439.359996,106.279989 440.16,108.52 C440.720003,109.960007 441.279997,110.68 441.84,110.68 C442.720004,110.68 444.279989,109.480012 446.52,107.08 C448.760011,104.679988 451.159987,101.680018 453.72,98.08 C457.080017,93.1999756 459.519992,90.2000056 461.04,89.08 C462.000005,88.5199972 462.599999,88.24 462.84,88.24 C463.160002,88.24 463.839995,88.5599968 464.88,89.2 C466.160006,90.0800044 466.8,90.919996 466.8,91.72 C466.8,93.0800068 465.060017,96.5199724 461.58,102.04 C458.099983,107.560028 454.920014,111.839985 452.04,114.88 C446.999975,120.400028 442.280022,123.16 437.88,123.16 C434.439983,123.16 431.280014,121.440017 428.4,118 C426.31999,115.519988 424.560007,111.060032 423.12,104.62 C421.679993,98.1799678 420.96,91.560034 420.96,84.76 L420.96,79.6 L415.68,79.6 C412.879986,79.6 410.980005,79.3400026 409.98,78.82 C408.979995,78.2999974 408.48,77.3600068 408.48,76 C408.48,74.7199936 408.979995,73.8400024 409.98,73.36 C410.980005,72.8799976 412.999985,72.4800016 416.04,72.16 L421.56,71.68 L422.04,66.52 C422.920004,57.3999544 424.259991,48.740041 426.06,40.54 C427.860009,32.339959 429.519992,27.640006 431.04,26.44 Z" id="Path" fill="#3B80FF"></path>
            <path d="M480.6,54.76 C483.640015,53.159992 486.719984,52.36 489.84,52.36 C492.800015,52.36 495.23999,52.7799958 497.16,53.62 C499.08001,54.4600042 501.279988,56.079988 503.76,58.48 C505.76001,60.4000096 506.959998,61.8399952 507.36,62.8 C507.760002,63.7600048 508.279997,66.1599808 508.92,70 C509.560003,74.2400212 509.88,78.759976 509.88,83.56 C509.88,84.9200068 509.800001,88.4799712 509.64,94.24 L509.16,110.92 L511.32,108.88 C512.840008,107.359992 514.959986,104.320023 517.68,99.76 C519.520009,96.7999852 520.899995,94.8000052 521.82,93.76 C522.740005,92.7199948 523.599996,92.2 524.4,92.2 C524.560001,92.2 524.959997,92.2799992 525.6,92.44 C526.640005,92.7600016 527.16,93.4799944 527.16,94.6 C527.16,96.8400112 524.840023,101.279967 520.2,107.92 C516.679982,113.040026 513.780011,116.719989 511.5,118.96 C509.219989,121.200011 507.160009,122.32 505.32,122.32 C503.799992,122.32 502.120009,121.520008 500.28,119.92 C498.19999,118.079991 496.620005,115.280019 495.54,111.52 C494.459995,107.759981 493.800001,104.480014 493.56,101.68 C493.319999,98.879986 493.120001,97.48 492.96,97.48 C492.639998,97.48 491.600009,99.1599832 489.84,102.52 C485.039976,112.120048 479.440032,116.92 473.04,116.92 C469.679983,116.92 466.640014,115.440015 463.92,112.48 C460.079981,108.39998 458.16,102.960034 458.16,96.16 C458.16,87.759958 460.919972,78.8400472 466.44,69.4 C470.52002,62.3599648 475.239973,57.4800136 480.6,54.76 Z M497.16,64 C496.279996,63.1199956 494.960009,62.4400024 493.2,61.96 C493.12,61.96 493.000001,61.9400002 492.84,61.9 C492.679999,61.8599998 492.56,61.84 492.48,61.84 C490.879992,61.84 489.260008,62.6199922 487.62,64.18 C485.979992,65.7400078 484.600006,67.7999872 483.48,70.36 C481.719991,74.5200208 480.140007,79.799968 478.74,86.2 C477.339993,92.600032 476.64,97.5599824 476.64,101.08 C476.64,103.320011 476.959997,104.44 477.6,104.44 C478.400004,104.44 479.599992,103.44001 481.2,101.44 C482.480006,99.9199924 485.13998,95.1200404 489.18,87.04 C493.22002,78.9599596 495.879994,73.1600176 497.16,69.64 C497.880004,67.7199904 498.24,66.4800028 498.24,65.92 C498.24,65.3599972 497.880004,64.7200036 497.16,64 Z" id="Combined-Shape" fill="#3B80FF"></path>
            <path d="M533.16,26.44 C534.040004,25.639996 535.039994,25.24 536.16,25.24 C538.320011,25.24 540.079993,26.7199852 541.44,29.68 C542.160004,31.4400088 542.52,35.5599676 542.52,42.04 C542.52,42.7600036 542.5,44.1399898 542.46,46.18 C542.42,48.2200102 542.4,49.8799936 542.4,51.16 L542.04,69.88 L547.08,70.12 C551.800024,70.3600012 554.16,71.3999908 554.16,73.24 C554.16,74.5200064 553.680005,75.4399972 552.72,76 C551.759995,76.5600028 550.000013,77.039998 547.44,77.44 C543.839982,77.9200024 541.880002,78.3999976 541.56,78.88 C541.239998,79.280002 541.08,81.879976 541.08,86.68 C541.08,99.0000616 541.479996,106.279989 542.28,108.52 C542.840003,109.960007 543.399997,110.68 543.96,110.68 C544.840004,110.68 546.399989,109.480012 548.64,107.08 C550.880011,104.679988 553.279987,101.680018 555.84,98.08 C559.200017,93.1999756 561.639992,90.2000056 563.16,89.08 C564.120005,88.5199972 564.719999,88.24 564.96,88.24 C565.280002,88.24 565.959995,88.5599968 567,89.2 C568.280006,90.0800044 568.92,90.919996 568.92,91.72 C568.92,93.0800068 567.180017,96.5199724 563.7,102.04 C560.219983,107.560028 557.040014,111.839985 554.16,114.88 C549.119975,120.400028 544.400022,123.16 540,123.16 C536.559983,123.16 533.400014,121.440017 530.52,118 C528.43999,115.519988 526.680007,111.060032 525.24,104.62 C523.799993,98.1799678 523.08,91.560034 523.08,84.76 L523.08,79.6 L517.8,79.6 C514.999986,79.6 513.100005,79.3400026 512.1,78.82 C511.099995,78.2999974 510.6,77.3600068 510.6,76 C510.6,74.7199936 511.099995,73.8400024 512.1,73.36 C513.100005,72.8799976 515.119985,72.4800016 518.16,72.16 L523.68,71.68 L524.16,66.52 C525.040004,57.3999544 526.379991,48.740041 528.18,40.54 C529.980009,32.339959 531.639992,27.640006 533.16,26.44 Z" id="Path" fill="#3B80FF"></path>
            <path d="M578.88,52.72 C580.80001,51.9999964 582.959988,51.64 585.36,51.64 C588.480016,51.64 591.319987,52.2799936 593.88,53.56 C597.88002,55.6400104 600.979989,58.3399834 603.18,61.66 C605.380011,64.9800166 606.48,68.3599828 606.48,71.8 C606.48,77.400028 603.920026,81.4399876 598.8,83.92 C596.479988,85.0400056 592.720026,86.1199948 587.52,87.16 L579.96,88.72 L579.96,91.12 C579.96,92.2400056 580.359996,94.6399816 581.16,98.32 C581.720003,100.800012 582.359996,102.539995 583.08,103.54 C583.800004,104.540005 584.839993,105.04 586.2,105.04 C586.920004,105.04 587.799995,104.920001 588.84,104.68 C593.960026,103.319993 598.999975,100.160025 603.96,95.2 C607.400017,91.7599828 609.679994,90.04 610.8,90.04 L611.28,90.04 C612.720007,90.1200004 613.44,90.9999916 613.44,92.68 C613.44,93.880006 612.320011,95.879986 610.08,98.68 C606.07998,103.640025 601.580025,107.979981 596.58,111.7 C591.579975,115.420019 587.04002,117.719996 582.96,118.6 C581.359992,118.920002 580.120004,119.08 579.24,119.08 C574.999979,119.08 570.92002,117.560015 567,114.52 C563.07998,111.479985 560.200009,107.520024 558.36,102.64 C556.999993,99.039982 556.32,94.640026 556.32,89.44 C556.32,86.3199844 556.599997,83.6800108 557.16,81.52 C558.920009,74.7999664 561.83998,68.7200272 565.92,63.28 C570.00002,57.8399728 574.319977,54.320008 578.88,52.72 Z M591.12,62.92 C589.999994,62.2799968 588.880006,61.96 587.76,61.96 C586.319993,61.96 584.900007,63.4199854 583.5,66.34 C582.099993,69.2600146 581.240002,72.71998 580.92,76.72 C580.84,77.520004 580.8,78.4799944 580.8,79.6 C580.8,80.400004 580.84,80.8 580.92,80.8 C581.320002,80.8 583.159984,80.4400036 586.44,79.72 C593.160034,78.3599932 596.759998,76.68001 597.24,74.68 C597.400001,73.879996 597.48,73.280002 597.48,72.88 C597.48,70.9599904 596.880006,69.0400096 595.68,67.12 C594.479994,65.1999904 592.960009,63.8000044 591.12,62.92 Z" id="Combined-Shape" fill="#3B80FF"></path>
            <g id="Group" stroke-width="1" stroke="#1BBA96">
                <path d="M145,120.042072 L145,30.0080809 C140.79507,29.8036427 137.404325,28.4777774 134.827766,26.030485 C132.251207,23.5831927 130.463503,19.9063643 129.464655,15 L30.2242685,15 C29.5287804,19.7893905 27.9184493,23.4662189 25.393275,26.030485 C22.8681007,28.5947512 19.4036757,29.9206165 15,30.0080809 L15,129.65688 C19.365593,130.14891 22.830018,131.644151 25.393275,134.142603 C27.956532,136.641056 29.5668631,140.260188 30.2242685,145 L119.20952,145" id="Square" stroke-width="9" fill-rule="nonzero"></path>
                <circle id="Oval-up-left" stroke-width="9" fill-rule="nonzero" cx="15" cy="15" r="15"></circle>
                <circle id="Oval-bottom-left" stroke-width="9" fill-rule="nonzero" cx="15" cy="145" r="15"></circle>
                <circle id="Oval-up-right" stroke-width="9" fill-rule="nonzero" cx="145" cy="15" r="15"></circle>
                <g id="+-sign" transform="translate(125.000000, 125.000000)" fill-rule="nonzero" stroke-width="9">
                    <path d="M0,20 L40,20" id="Path-3"></path>
                    <path d="M0,20 L40,20" id="Path-3-Copy" transform="translate(20.000000, 20.000000) rotate(90.000000) translate(-20.000000, -20.000000) "></path>
                </g>
            </g>
        </g>
    </g>
</svg>