<svg viewBox="0 0 638 190" xmlns="http://www.w3.org/2000/svg"><g fill="none" fill-rule="evenodd"><text fill="#3b80ff" font-family="TheodonisVilla-Regular, Theodonis Villa" font-size="120"><tspan x="38.4" y="133">Imannotate</tspan></text><g fill-rule="nonzero" stroke="#1bba96" stroke-width="9" transform="translate(15 12)"><path d="m145 120.04v-90.034c-4.2049-.20444-7.5957-1.5303-10.172-3.9776-2.5766-2.4473-4.3643-6.1241-5.3631-11.03h-99.24c-.69549 4.7894-2.3058 8.4662-4.831 11.03-2.5252 2.5643-5.9896 3.8901-10.393 3.9776v99.649c4.3656.49203 7.83 1.9873 10.393 4.4857 2.5633 2.4985 4.1736 6.1176 4.831 10.857h88.985"/><circle cx="15" cy="15" r="15"/><circle cx="15" cy="145" r="15"/><circle cx="145" cy="15" r="15"/><g transform="translate(125 125)"><path d="m0 20h40"/><path d="m0 20h40" transform="matrix(0 1 -1 0 40 0)"/></g></g></g></svg>