<?xml version="1.0" standalone="no"?>
<!DOCTYPE svg PUBLIC "-//W3C//DTD SVG 20010904//EN"
 "http://www.w3.org/TR/2001/REC-SVG-20010904/DTD/svg10.dtd">
<svg version="1.0" xmlns="http://www.w3.org/2000/svg"
 width="256.000000pt" height="256.000000pt" viewBox="0 0 256.000000 256.000000"
 preserveAspectRatio="xMidYMid meet">
<metadata>
Created by potrace 1.11, written by Peter Selinger 2001-2013
</metadata>
<g transform="translate(0.000000,256.000000) scale(0.100000,-0.100000)"
fill="#000000" stroke="none">
<path d="M465 2196 c-59 -27 -77 -46 -104 -106 -26 -57 -26 -103 0 -160 25
-56 44 -77 92 -101 l37 -19 0 -500 0 -500 -37 -19 c-48 -24 -67 -45 -92 -101
-26 -57 -26 -103 0 -160 27 -60 45 -79 104 -106 63 -30 107 -30 171 0 55 26
87 59 106 112 l12 34 455 2 456 3 0 45 0 45 -457 3 -458 2 -19 39 c-23 45 -81
98 -116 107 l-25 6 0 492 0 492 35 13 c52 18 91 56 112 106 l18 45 492 0 491
0 10 -28 c14 -41 59 -90 103 -113 l39 -19 0 -290 0 -290 -70 -94 c-39 -52 -75
-98 -80 -101 -16 -10 -12 30 21 200 49 259 43 349 -27 375 -43 17 -76 0 -150
-75 l-72 -72 -12 59 c-17 88 -63 125 -125 102 -24 -10 -90 -111 -153 -237 -63
-128 -57 -131 -82 44 -15 111 -37 149 -85 149 -66 0 -81 -62 -65 -280 11 -150
33 -294 52 -334 10 -23 46 -46 72 -46 25 0 47 38 77 135 31 98 111 295 133
326 9 13 10 -24 8 -160 -5 -201 4 -251 44 -270 60 -27 85 10 108 152 20 120
44 186 102 273 l45 69 -5 -40 c-3 -22 -12 -76 -20 -120 -20 -103 -21 -274 -2
-319 18 -44 52 -66 100 -66 34 0 46 7 91 52 28 29 61 67 73 83 l21 30 1 -87 0
-88 50 0 50 0 0 458 0 458 34 12 c19 7 46 22 61 34 35 27 75 112 75 158 0 40
-38 127 -66 152 -31 27 -106 58 -144 58 -38 0 -113 -31 -143 -58 -11 -9 -28
-34 -38 -54 l-19 -38 -500 0 -500 0 -19 38 c-24 47 -45 66 -101 91 -59 27
-104 26 -165 -3z m149 -97 c41 -32 48 -53 36 -100 -17 -60 -52 -89 -111 -89
-41 0 -51 4 -73 31 -19 22 -26 42 -26 71 0 86 107 140 174 87z m1412 -13 c44
-44 47 -99 8 -145 -23 -28 -32 -31 -81 -31 -47 0 -59 4 -84 29 -43 43 -41 101
5 147 28 28 42 34 76 34 34 0 48 -6 76 -34z m-1413 -1386 c25 -20 47 -73 47
-113 0 -11 -15 -34 -34 -53 -28 -28 -42 -34 -76 -34 -60 0 -110 50 -110 110 0
88 106 143 173 90z"/>
<path d="M792 1814 c-49 -34 -67 -108 -83 -339 -12 -175 1 -344 31 -412 20
-46 69 -83 109 -83 16 0 40 16 68 45 l43 45 0 258 c0 267 -8 363 -36 432 -25
62 -85 87 -132 54z"/>
<path d="M1910 735 l0 -85 -85 0 -85 0 0 -45 0 -45 85 0 85 0 0 -85 0 -85 45
0 45 0 0 85 0 85 85 0 85 0 0 45 0 45 -85 0 -85 0 0 85 0 85 -45 0 -45 0 0
-85z"/>
</g>
</svg>
